<svg width="12" height="13" viewBox="0 0 12 13" fill="none" xmlns="http://www.w3.org/2000/svg">
<path d="M8.79804 7.3126C8.75633 7.31038 8.7578 7.34667 8.75121 7.37408C8.72633 7.48371 8.66048 7.56149 8.56755 7.61704C8.49804 7.65852 8.42706 7.6963 8.35755 7.73852C8.22585 7.81704 8.20609 7.86 8.2317 8.01037C8.2478 8.10519 8.23463 8.19185 8.17097 8.26445C8.0678 8.38074 8.08024 8.51556 8.10658 8.65334C8.11243 8.68297 8.1278 8.71778 8.16219 8.70741C8.25585 8.67778 8.3656 8.66963 8.41536 8.56149C8.50901 8.36149 8.61731 8.16815 8.69194 7.95852C8.72048 7.87852 8.7578 7.80371 8.81194 7.73704C8.85585 7.68297 8.87706 7.62075 8.87341 7.54964C8.86462 7.49186 8.85658 7.43408 8.8456 7.37778C8.83975 7.35112 8.83682 7.31556 8.79877 7.31334L8.79804 7.3126Z" fill="white"/>
<path d="M4.31054 0.962232C4.39469 0.994824 4.39542 1.01927 4.32298 1.07779C4.26445 1.12519 4.20591 1.1726 4.14884 1.22075C4.13347 1.23334 4.11591 1.25112 4.12981 1.2726C4.14079 1.28964 4.16201 1.28371 4.17737 1.2763C4.23957 1.24964 4.30542 1.24593 4.37128 1.23705C4.43786 1.22816 4.50006 1.20594 4.55713 1.1689C4.60103 1.14001 4.61786 1.10297 4.57176 1.06371C4.49128 0.995565 4.44664 0.918528 4.48176 0.837046C4.49859 0.732602 4.45469 0.717786 4.39323 0.729638C4.31859 0.743712 4.28274 0.797787 4.26298 0.866675C4.24981 0.912601 4.26152 0.942972 4.31054 0.96149V0.962232Z" fill="white"/>
<path d="M3.92699 1.17412C4.03455 1.1593 4.12235 1.10375 4.19333 1.01708C4.20796 0.999303 4.22406 0.975601 4.21016 0.953378C4.19406 0.927453 4.16333 0.933377 4.13918 0.942266C4.04772 0.979303 3.96284 1.02967 3.88821 1.09412C3.87211 1.10819 3.84723 1.12449 3.8604 1.1519C3.87284 1.17708 3.89991 1.1719 3.92625 1.17338L3.92699 1.17412Z" fill="white"/>
<path d="M11.0663 5.35921C11.111 5.35255 11.1183 5.31477 11.111 5.27847C11.0934 5.19254 11.0715 5.1081 11.0517 5.02291C11.048 5.00736 11.0407 4.9918 11.0246 4.99699C11.0137 5.00069 11.0012 5.01699 10.9997 5.02884C10.9946 5.06884 10.9946 5.11032 10.9917 5.16291C10.9961 5.20069 10.9997 5.25032 11.0071 5.29921C11.0122 5.33255 11.0261 5.36588 11.0671 5.35995L11.0663 5.35921Z" fill="white"/>
<path d="M4.95946 2.1163C4.98873 2.08667 5.02092 2.04889 5.00117 2.00963C4.97556 1.95704 4.9697 1.91482 5.00409 1.86519C5.02019 1.84223 5.01653 1.81185 4.98141 1.80445C4.95141 1.79852 4.93531 1.82445 4.93824 1.84593C4.94775 1.90889 4.91629 1.95037 4.87751 1.99037C4.86068 2.00741 4.85702 2.03185 4.85775 2.05556C4.85995 2.08593 4.86727 2.11408 4.89653 2.12889C4.91995 2.14074 4.9419 2.13408 4.95946 2.1163Z" fill="white"/>
<path d="M5.95317 0C2.67073 0 0 2.7037 0 6.02667C0 9.34963 2.67073 12.0533 5.95317 12.0533C9.23561 12.0533 11.9063 9.34963 11.9063 6.02667C11.9063 2.7037 9.23561 0 5.95317 0ZM11.4666 6.02667C11.4666 9.10444 8.99342 11.6081 5.95317 11.6081C3.55171 11.6081 1.50512 10.0452 0.750732 7.87185C0.743415 7.81111 0.734634 7.74963 0.72439 7.68889C0.69 7.4837 0.688536 7.28667 0.79317 7.09408C0.866341 6.95852 0.848048 6.80444 0.813658 6.65704C0.805609 6.62148 0.780001 6.60296 0.748537 6.59333C0.664391 6.56741 0.602928 6.51334 0.55683 6.43852C0.531221 6.39778 0.493903 6.37778 0.450732 6.36222C0.444147 6.25111 0.439757 6.14 0.439757 6.02741C0.439757 3.22963 2.48342 0.906669 5.13878 0.506669C5.12561 0.511854 5.1139 0.520743 5.1 0.525187C5.03342 0.548891 4.99463 0.591854 4.98073 0.661483C4.9639 0.745928 5.00268 0.785187 5.08683 0.762964C5.13146 0.751112 5.17463 0.734816 5.21854 0.719261C5.24781 0.70889 5.27561 0.705927 5.29464 0.737038C5.31585 0.771112 5.32244 0.809631 5.30415 0.845927C5.29171 0.871112 5.26756 0.866667 5.24488 0.851852C5.15781 0.794074 5.08976 0.812595 5.07732 0.914076C5.06488 1.02222 5.00781 1.05185 4.91707 1.07259C4.78683 1.10296 4.67195 1.17407 4.55707 1.24148C4.50805 1.27037 4.45976 1.29111 4.40342 1.29111C4.38073 1.29111 4.35146 1.29111 4.33683 1.3037C4.28488 1.34963 4.2278 1.36519 4.16122 1.35778C4.13707 1.35556 4.11366 1.36222 4.10854 1.39185C4.10415 1.42 4.12244 1.43333 4.14366 1.44519C4.2439 1.5037 4.27098 1.55259 4.24683 1.63408C4.22122 1.72 4.12171 1.78222 4.01927 1.77185C3.93073 1.76296 3.8422 1.74889 3.75366 1.7363C3.68122 1.72593 3.63585 1.74889 3.62781 1.82889C3.62268 1.87852 3.60512 1.92593 3.57439 1.96593C3.51293 2.04667 3.52098 2.14889 3.49244 2.24C3.47854 2.28445 3.51585 2.2963 3.55171 2.28667C3.59854 2.27408 3.63586 2.28593 3.67171 2.3163C3.69439 2.3363 3.72366 2.34741 3.75219 2.34296C3.91463 2.31852 4.07488 2.28741 4.14512 2.10593C4.18902 1.99334 4.25854 1.91704 4.39024 1.92741C4.42829 1.93037 4.45902 1.91259 4.47439 1.87778C4.51463 1.7837 4.58122 1.76148 4.67707 1.78445C4.7422 1.8 4.80585 1.78445 4.86659 1.74593C4.98146 1.67333 5.00781 1.68296 5.09342 1.78889C5.18049 1.89556 5.29902 1.9563 5.42122 2.01111C5.45415 2.02593 5.50098 2.03185 5.49585 2.08296C5.49 2.13556 5.45195 2.16445 5.40366 2.17482C5.36707 2.18296 5.32903 2.18296 5.29244 2.19111C5.25512 2.2 5.2339 2.22074 5.26463 2.25926C5.29756 2.30148 5.41171 2.31482 5.45561 2.28296C5.54268 2.21926 5.58658 2.12963 5.60854 2.02667C5.62024 1.97259 5.59171 1.94667 5.54707 1.92667C5.43732 1.8763 5.34805 1.79852 5.26976 1.70741C5.24927 1.68371 5.22146 1.65037 5.24049 1.62222C5.26463 1.58593 5.29829 1.62148 5.32317 1.63408C5.40146 1.67334 5.48488 1.6963 5.5661 1.72593C5.68171 1.76889 5.77317 1.83778 5.81195 1.96519C5.83903 2.05482 5.88366 2.13704 5.9422 2.21111C5.97659 2.25407 6.01829 2.28296 6.0761 2.27704C6.12366 2.27185 6.16829 2.2563 6.19098 2.21037C6.21366 2.16371 6.17561 2.13482 6.15146 2.10296C6.15 2.10074 6.14781 2.09852 6.14561 2.0963C6.11927 2.05704 6.04317 2.02815 6.06951 1.98296C6.09805 1.93408 6.16976 1.97185 6.22244 1.97185C6.30659 1.97185 6.33732 2.00667 6.33439 2.09408C6.33073 2.20148 6.44707 2.30519 6.57732 2.30963C6.67829 2.31259 6.77122 2.32889 6.85829 2.38148C6.90659 2.41111 6.95268 2.38296 6.99951 2.37037C7.05073 2.35704 7.11878 2.31556 7.15244 2.36593C7.19488 2.42963 7.24024 2.50667 7.20366 2.59482C7.19341 2.61926 7.18537 2.64371 7.17732 2.66889C7.13049 2.81482 7.06902 2.85037 6.92634 2.79704C6.85902 2.77185 6.80488 2.77111 6.73829 2.8037C6.63219 2.8563 6.52244 2.81259 6.41781 2.7837C6.35707 2.76741 6.30073 2.73408 6.24366 2.70741C6.08195 2.63111 5.92683 2.67333 5.8222 2.82C5.7739 2.88667 5.70439 2.87037 5.64 2.85482C5.57049 2.83778 5.51927 2.78741 5.46512 2.7437C5.3839 2.67852 5.2961 2.63334 5.18854 2.63408C5.16 2.63408 5.13146 2.62519 5.10366 2.62C5.03854 2.60889 5.0122 2.57556 5.0422 2.50889C5.05171 2.48741 5.05976 2.46519 5.06634 2.44296C5.10512 2.30963 5.0539 2.25926 4.91707 2.26222C4.76707 2.26593 4.62219 2.30889 4.47 2.2963C4.33829 2.28593 4.21756 2.35407 4.10195 2.41259C3.99585 2.46593 3.89341 2.47482 3.78659 2.42519C3.74634 2.40667 3.70463 2.40074 3.67463 2.4363C3.60439 2.51926 3.50415 2.55482 3.41488 2.60667C3.30073 2.67333 3.21 2.75704 3.18951 2.89926C3.18073 2.96296 3.1361 2.99852 3.08049 3.02519C2.77829 3.17111 2.58146 3.42371 2.41537 3.70593C2.38171 3.76371 2.37805 3.82815 2.38902 3.89334C2.42122 4.07704 2.39049 4.24222 2.25659 4.37926C2.21341 4.42296 2.22512 4.46741 2.22659 4.52519C2.22951 4.65852 2.28585 4.71111 2.40146 4.75778C2.49073 4.79334 2.52805 4.90074 2.54854 4.99556C2.60561 5.25778 2.79439 5.38593 3.01683 5.48148C3.06512 5.50222 3.11854 5.51407 3.16902 5.49111C3.28171 5.43926 3.39951 5.44148 3.51805 5.45037C3.68268 5.46222 3.84 5.44741 3.98341 5.35185C4.04927 5.30815 4.11512 5.32 4.17585 5.36963C4.20732 5.39556 4.23878 5.42074 4.26951 5.44741C4.32805 5.5 4.39463 5.51556 4.47073 5.49556C4.51244 5.48444 4.55488 5.47259 4.59805 5.46963C4.71293 5.46074 4.79195 5.53408 4.79707 5.64963C4.80293 5.76222 4.77732 5.87037 4.74293 5.9763C4.70195 6.10518 4.72024 6.20815 4.83951 6.28815C4.92 6.34222 4.9661 6.43037 5.01293 6.51482C5.11171 6.69111 5.19439 6.87333 5.23171 7.07407C5.24707 7.15778 5.24268 7.23556 5.20683 7.31334C5.15122 7.43556 5.09781 7.55778 5.06634 7.68963C5.04 7.8 5.04732 7.90518 5.10293 8.0037C5.24854 8.26148 5.36195 8.53111 5.40878 8.82741C5.42268 8.91334 5.4622 8.99333 5.50317 9.07111C5.56244 9.18445 5.62317 9.29556 5.65098 9.42445C5.6839 9.57778 5.76805 9.61704 5.91439 9.56297C5.93049 9.55704 5.94732 9.55111 5.96122 9.54074C6.04171 9.48148 6.12073 9.45852 6.20854 9.53111C6.24512 9.56074 6.29561 9.55704 6.34244 9.54445C6.46976 9.50963 6.5839 9.4563 6.67317 9.34963C6.74927 9.25852 6.83707 9.17704 6.92342 9.09482C6.98415 9.0363 7.02878 8.97333 7.03683 8.88519C7.04342 8.81778 7.0778 8.76445 7.13195 8.72445C7.15756 8.70519 7.1839 8.68741 7.20951 8.66889C7.39317 8.54074 7.41512 8.48148 7.34707 8.26296C7.32732 8.2 7.33098 8.15704 7.3939 8.12741C7.41659 8.1163 7.4422 8.1 7.4539 8.07852C7.52561 7.94741 7.64341 7.88296 7.77585 7.83482C7.81244 7.82148 7.84463 7.79259 7.87683 7.76815C8.01658 7.66074 8.0239 7.6437 7.96976 7.47333C7.95146 7.4163 7.95146 7.36518 7.98146 7.31407C8.01878 7.25111 8.01147 7.19185 7.9661 7.1363C7.89 7.04296 7.86512 6.93556 7.88195 6.8163C7.88415 6.79926 7.89 6.77778 7.88268 6.76444C7.80146 6.61259 7.93024 6.50148 7.95585 6.37037C7.95878 6.35556 7.97634 6.34223 7.98951 6.33185C8.26829 6.11186 8.46732 5.81111 8.73073 5.5763C8.74537 5.56371 8.75561 5.5437 8.76293 5.52445C8.83317 5.3363 8.91732 5.1526 8.96414 4.9563C8.96853 4.9363 8.97439 4.9163 8.97366 4.8963C8.97146 4.85482 8.99268 4.80371 8.94658 4.77556C8.89756 4.74519 8.86683 4.79037 8.8339 4.81556C8.80756 4.83556 8.77902 4.84741 8.7461 4.84889C8.63341 4.85259 8.52146 4.86444 8.4139 4.90296C8.36415 4.92074 8.32756 4.89778 8.30342 4.85778C8.27488 4.81037 8.2478 4.76148 8.22878 4.70963C8.18122 4.57926 8.08976 4.49407 7.96537 4.44889C7.87903 4.41778 7.83147 4.36148 7.81537 4.27408C7.79561 4.1637 7.74439 4.07778 7.64268 4.02667C7.59732 4.0037 7.58488 3.96444 7.58708 3.91704C7.59 3.86222 7.57902 3.81111 7.54317 3.76963C7.40195 3.60519 7.29219 3.42222 7.20366 3.22371C7.16414 3.13556 7.08732 3.07333 7.03244 2.99408C7.14171 3.0637 7.20976 3.07605 7.23658 3.03111C7.31195 3.12741 7.37268 3.23482 7.44805 3.32815C7.6039 3.52222 7.71732 3.74815 7.89073 3.92519C8.00854 4.04519 8.10073 4.16741 8.12488 4.34074C8.14098 4.45408 8.19805 4.55482 8.27488 4.64223C8.32024 4.69408 8.37 4.70148 8.41536 4.65185C8.48268 4.57852 8.57049 4.57111 8.6561 4.54074C8.78707 4.49481 8.92537 4.43556 9.01171 4.31111C9.04463 4.2637 9.07683 4.23334 9.13756 4.23926C9.15659 4.24148 9.19024 4.23704 9.1939 4.22667C9.23707 4.11111 9.40171 4.06741 9.37244 3.90889C9.36366 3.86 9.39439 3.81333 9.41561 3.76889C9.46464 3.66741 9.45073 3.60593 9.35415 3.54815C9.25976 3.49185 9.15951 3.44667 9.09732 3.34667C9.0739 3.30963 9.0439 3.32593 9.02122 3.35704C8.98976 3.39926 8.95463 3.43778 8.91073 3.46741C8.85585 3.50519 8.80683 3.50222 8.77171 3.44074C8.74829 3.40074 8.71317 3.38 8.67512 3.35704C8.53756 3.27259 8.45341 3.13926 8.37585 3.00222C8.36415 2.98222 8.36049 2.9563 8.38098 2.93704C8.40439 2.91556 8.43146 2.92074 8.45268 2.93778C8.51854 2.99037 8.58439 3.04222 8.64585 3.1C8.75195 3.19852 8.85951 3.2837 9.01536 3.21408C9.0461 3.20074 9.07463 3.21556 9.09219 3.24C9.21146 3.40371 9.39366 3.41556 9.5561 3.38593C9.81146 3.34 9.9439 3.47852 10.0698 3.65556C10.0946 3.69111 10.1151 3.73037 10.1422 3.76445C10.2066 3.84222 10.2432 3.83852 10.3193 3.74815C10.3251 3.75407 10.3346 3.75852 10.3361 3.76519C10.4312 4.17408 10.6412 4.54074 10.7554 4.94222C10.7612 4.96148 10.77 4.98074 10.7795 4.99852C10.8037 5.04 10.8132 5.10667 10.868 5.10741C10.9288 5.10815 10.9398 5.03852 10.961 4.99408C10.9983 4.91556 10.9873 4.83111 10.9537 4.75556C10.8541 4.53259 10.898 4.30889 10.942 4.08593C10.9602 3.99408 10.9866 3.90445 10.9807 3.80963C10.9793 3.79111 10.9807 3.77259 10.9859 3.75704C11.291 4.44963 11.4622 5.2163 11.4622 6.02296L11.4666 6.02667ZM5.89463 0.446669C5.89463 0.446669 5.89464 0.446669 5.8939 0.446669C5.81634 0.461484 5.80317 0.510371 5.81415 0.581482C5.82586 0.66 5.87341 0.671852 5.9378 0.666667C5.96268 0.664444 5.99342 0.661483 6.00073 0.696298C6.00732 0.725187 6.00878 0.756297 5.98537 0.778519C5.96122 0.802223 5.94439 0.774075 5.92537 0.764445C5.88512 0.742963 5.85878 0.754817 5.84707 0.798521C5.83902 0.829632 5.83464 0.861482 5.82512 0.891852C5.80829 0.945186 5.7761 0.976297 5.71463 0.961482C5.6539 0.946667 5.59464 0.954816 5.53756 0.982223C5.42415 1.0363 5.30488 0.997038 5.18854 1.00296C5.15707 1.00445 5.1439 0.978519 5.15488 0.947408C5.16805 0.911852 5.18781 0.887409 5.23317 0.902224C5.39781 0.954817 5.48561 0.921482 5.58512 0.774075C5.5961 0.757038 5.60927 0.740742 5.62463 0.728149C5.68171 0.680742 5.71098 0.633334 5.63927 0.572593C5.6122 0.550371 5.61659 0.522223 5.64951 0.512594C5.69634 0.49926 5.73658 0.477039 5.77317 0.448891C5.81341 0.447409 5.85366 0.445927 5.89463 0.445927V0.446669ZM6.97024 1.60963C6.93512 1.54247 6.95415 1.50864 7.02732 1.50815C7.1239 1.50815 7.12537 1.50815 7.09024 1.6C7.07122 1.64963 7.09537 1.68074 7.13268 1.70074C7.20073 1.73778 7.27244 1.76889 7.34195 1.80445C7.38073 1.8237 7.41805 1.84519 7.45464 1.86815C7.47439 1.88 7.49414 1.8963 7.48756 1.9237C7.48097 1.95037 7.45683 1.9563 7.43488 1.96296C7.40122 1.97407 7.36683 1.97037 7.33244 1.96445C7.2439 1.94963 7.15756 1.92889 7.07342 1.89778C6.97683 1.86148 6.88756 1.85704 6.79317 1.9163C6.69439 1.97852 6.58903 1.96445 6.48805 1.91111C6.43683 1.88445 6.41561 1.84741 6.44341 1.78963C6.4778 1.71926 6.50927 1.64741 6.54512 1.57704C6.56195 1.5437 6.58317 1.50741 6.62854 1.51259C6.67317 1.51778 6.70756 1.54 6.72878 1.58519C6.76537 1.66593 6.88171 1.71111 6.95927 1.68C7.00244 1.66222 6.98342 1.63556 6.96951 1.60963H6.97024ZM8.12341 1.7763C8.19512 1.80741 8.24561 1.86074 8.28878 1.92445C8.35756 2.02519 8.43146 2.12222 8.50244 2.22074C8.52146 2.24667 8.54268 2.2763 8.52439 2.30889C8.5039 2.34593 8.46659 2.34074 8.43146 2.33407C8.33854 2.31556 8.25951 2.26889 8.18854 2.20741C8.16366 2.18593 8.14464 2.15852 8.14537 2.12445C8.14756 2.02 8.08829 1.95185 8.01805 1.88815C7.95585 1.83185 7.90024 1.76815 7.83 1.72148C7.77512 1.68519 7.77585 1.64815 7.82195 1.60222C7.86658 1.55704 7.90098 1.49926 7.97341 1.50593C8.03854 1.50371 8.06634 1.53333 8.04073 1.59259C7.99829 1.68963 8.04219 1.74148 8.12415 1.77778L8.12341 1.7763Z" fill="white"/>
</svg>
